<svg width="50" height="64" viewBox="0 0 50 64" fill="none" xmlns="http://www.w3.org/2000/svg">
<path d="M45.6384 44.2649C44.2257 42.7073 42.5233 41.9466 40.3498 41.9466H35.7702L32.7636 39.0488C30.5539 40.86 27.8734 41.9105 24.9753 41.9105C22.2586 41.9105 19.6867 40.9687 17.5857 39.3386L14.905 41.9105H10.1388C7.71183 41.9105 5.82819 42.7437 4.34301 44.4463C0.032373 49.4451 0.75685 60.1312 1.08286 63.4276H49.333C49.5868 60.0948 50.0215 49.1552 45.6384 44.2649Z" fill="#FFA73B"/>
<path d="M12.4201 21.5898C11.5508 22.3143 10.9712 23.4735 10.9712 24.8138C10.9712 26.8061 12.2753 28.4362 13.9415 28.7259C14.3038 31.7325 15.5354 34.3769 17.3828 36.333C17.7812 36.7314 18.1796 37.1299 18.6143 37.4559C19.1578 37.8906 19.7372 38.2528 20.3531 38.5788C21.7296 39.3032 23.2508 39.7017 24.881 39.7017C26.5111 39.7017 28.0326 39.3032 29.409 38.5788C30.0248 38.2528 30.6044 37.8906 31.1478 37.4559C31.5826 37.1299 31.9809 36.7314 32.3794 36.333C34.1906 34.377 35.4584 31.7687 35.7844 28.7622C35.8208 28.7622 35.8569 28.7622 35.8931 28.7622C37.8131 28.7622 39.3344 26.9872 39.3344 24.8138C39.3344 23.4735 38.7548 22.3143 37.8854 21.5898H12.4201Z" fill="#FFA73B"/>
<path d="M38.1157 13.9819C36.9928 10.2509 34.0224 6.44739 30.2551 4.4913V13.0039V14.1631C30.2551 14.2355 30.2551 14.2717 30.2551 14.308C30.2189 14.7064 30.1465 15.0687 29.9655 15.4309C29.4944 16.3365 28.5526 16.9885 27.466 16.9885H26.8864H22.9018C21.8876 16.9885 20.9818 16.4452 20.511 15.6482C20.2937 15.3222 20.185 14.9601 20.1126 14.5615C20.0764 14.4166 20.0764 14.308 20.0764 14.1631V13.1488V4.45508C16.3091 6.44739 13.3387 10.2509 12.2158 13.9819L11.9622 14.7789H9.89746V19.3069H12.1796H15.3673H16.7075H34.1676H35.4716H40.408V19.0895V14.7789H38.3695L38.1157 13.9819Z" fill="#FFA73B"/>
<path d="M22.8886 15.866H27.4165C28.0686 15.866 28.6119 15.5038 28.9017 14.9605C29.0466 14.7069 29.1191 14.4533 29.1191 14.1635V13.8375V12.4972V3.9484V2.71679V2.24588C29.1191 1.95609 29.0466 1.70252 28.9742 1.44895C28.6483 0.615805 27.8151 0 26.8733 0H22.8886C22.0192 0 21.2947 0.652029 21.2223 1.48518C21.2223 1.55763 21.186 1.63007 21.186 1.70252V2.71679V3.9484V12.6421V14.0186V14.1635C21.186 14.5258 21.2947 14.8518 21.4758 15.1416C21.802 15.5763 22.309 15.866 22.8886 15.866Z" fill="#FFA73B"/>
</svg>
