<svg xmlns="http://www.w3.org/2000/svg" width="40.714" height="40.72" viewBox="0 0 40.714 40.72">
  <g id="account" transform="translate(0 0)">
    <path id="Path_10" d="M20.36,0a20.36,20.36,0,1,0,0,40.72q.92,0,1.833-.082c.565-.051,1.126-.128,1.682-.225l.214-.038A20.36,20.36,0,0,0,20.36,0ZM18.724,39.29h-.048c-.528-.047-1.052-.117-1.571-.208l-.089-.014q-.762-.136-1.507-.335l-.12-.031c-.485-.132-.965-.284-1.438-.454-.049-.018-.1-.033-.147-.051-.464-.17-.919-.361-1.367-.568-.056-.025-.111-.049-.167-.075-.44-.2-.871-.433-1.294-.674l-.18-.1q-.624-.364-1.222-.778l-.181-.125C9,35.6,8.618,35.3,8.246,34.993l-.1-.089V29.182a7.474,7.474,0,0,1,7.465-7.465h9.5a7.474,7.474,0,0,1,7.465,7.465V34.9l-.09.075q-.569.475-1.169.9l-.159.109q-.605.421-1.241.792l-.16.09c-.429.244-.866.475-1.311.683-.051.024-.1.046-.154.068-.452.208-.911.4-1.378.572-.046.017-.093.032-.136.048-.475.17-.957.324-1.445.457l-.117.029c-.5.132-1,.245-1.509.336l-.087.014c-.52.091-1.045.161-1.573.208H22c-.543.047-1.086.072-1.636.072s-1.1-.021-1.639-.067Zm15.209-5.644V29.182a8.833,8.833,0,0,0-8.823-8.823h-9.5a8.833,8.833,0,0,0-8.823,8.823v4.464a19,19,0,1,1,27.146,0Zm0,0" fill="#fbaf03"/>
    <path id="Path_11" d="M166.787,64a6.787,6.787,0,1,0,6.787,6.787A6.787,6.787,0,0,0,166.787,64Zm0,12.216a5.429,5.429,0,1,1,5.429-5.429A5.429,5.429,0,0,1,166.787,76.216Zm0,0" transform="translate(-146.427 -58.571)" fill="#fbaf03"/>
  </g>
</svg>
