<svg xmlns="http://www.w3.org/2000/svg" width="154" height="154" viewBox="0 0 154 154">
    <g>
        <path d="M77,77m-77,0a77,77 0,1 1,154 0a77,77 0,1 1,-154 0" fill="#E91E63" />
        <path
            d="M63.745,58.028L63.745,51L47.951,51L47.951,58.028L44,58.028v45.972L109.037,104L109.037,58.028ZM52.193,55.242L59.5,55.242L59.5,58.028L52.193,58.028ZM63.455,99.758L48.242,99.758L48.242,62.27L63.455,62.27L63.455,99.758ZM104.796,99.758L67.7,99.758L67.7,62.27L104.8,62.27L104.8,99.758Z"
            fill="#fff" />
        <path
            d="M86.246,67.344a13.67,13.67 0,1 0,13.67 13.67A13.686,13.686 0,0 0,86.246 67.344ZM86.246,90.444a9.429,9.429 0,1 1,9.429 -9.429A9.439,9.439 0,0 1,86.246 90.443Z"
            fill="#fff" />
        <path
            d="M79.487,81.015h4.242a2.521,2.521 0,0 1,2.518 -2.518v-4.242A6.767,6.767 0,0 0,79.487 81.015Z"
            fill="#fff" />
    </g>
</svg>