<svg xmlns="http://www.w3.org/2000/svg" width="46" height="46" viewBox="0 0 46 46">
    <g id="Group_948" transform="translate(-308 -498)">
        <circle id="Ellipse_29" cx="23" cy="23" r="23" transform="translate(308 498)"
            fill="#FBAF03" />
        <g id="add-to-cart" transform="translate(318 509)">
            <path id="Path_111"
                d="M25.856,10.641C21.673,19.5,20.312,19.5,19.5,19.5h-8a5.282,5.282,0,0,1-5.47-4.2c-.016-.078-1.6-7.853-2.005-10.025C3.826,4.21,3.32,3.5,1.5,3.5a1.5,1.5,0,0,1,0-3C4.52.5,6.464,2,6.974,4.724c.4,2.149,1.98,9.9,2,9.977a2.33,2.33,0,0,0,2.53,1.8H19.1A42.3,42.3,0,0,0,23.143,9.36a1.5,1.5,0,0,1,2.713,1.281ZM10.5,20.5A2.5,2.5,0,1,0,13,23,2.5,2.5,0,0,0,10.5,20.5Zm9,0A2.5,2.5,0,1,0,22,23,2.5,2.5,0,0,0,19.5,20.5Zm-4.837-8.156a.559.559,0,0,0,.692,0A37.16,37.16,0,0,0,19.671,7.39a.559.559,0,0,0-.462-.869H16.983s-.217-4.291-.359-4.49a2.519,2.519,0,0,0-1.616-.494,2.573,2.573,0,0,0-1.634.494c-.141.2-.328,4.49-.328,4.49H10.791a.559.559,0,0,0-.464.869A36.811,36.811,0,0,0,14.663,12.344Z"
                transform="translate(0 -0.5)" fill="#fff" />
        </g>
    </g>
</svg>
