<svg xmlns="http://www.w3.org/2000/svg" width="26.666" height="26.601" viewBox="0 0 26.666 26.601">
    <path id="address"
        d="M10.651,23.884v2.7L10,26.057a43.781,43.781,0,0,1-4.936-4.826C1.7,17.375,0,13.914,0,10.944V10.65a10.651,10.651,0,0,1,21.3,0v.294c0,.249-.013.5-.037.759L19.181,9.8a8.573,8.573,0,0,0-17.1.847v.294c0,5.019,6.467,11.095,8.573,12.94Zm6.39-1.493h3.117V19.274H17.041ZM10.651,6.234A4.416,4.416,0,1,1,6.234,10.65,4.421,4.421,0,0,1,10.651,6.234Zm0,2.078a2.338,2.338,0,1,0,2.338,2.338A2.341,2.341,0,0,0,10.651,8.312ZM25.265,20.979l-.584-.533v3.336A2.821,2.821,0,0,1,21.863,26.6h-6.58a2.821,2.821,0,0,1-2.818-2.817V20.446l-.584.533-1.4-1.535,8.092-7.382,8.092,7.382ZM22.6,18.55l-4.029-3.676L14.545,18.55v5.232a.74.74,0,0,0,.739.739h6.58a.74.74,0,0,0,.739-.739Zm0,0"
        transform="translate(0 0.001)" fill="#fbaf03" />
</svg>
