<svg id="burger" xmlns="http://www.w3.org/2000/svg" width="28.914" height="28.609"
    viewBox="0 0 28.914 28.609">
    <path id="Path_92"
        d="M286.679,45.2a12.263,12.263,0,0,1,4.975,1.887,7.753,7.753,0,0,1,2.879,3.319.565.565,0,1,0,1.041-.439,8.874,8.874,0,0,0-3.286-3.816,13.4,13.4,0,0,0-5.435-2.067.565.565,0,0,0-.173,1.116Zm0,0"
        transform="translate(-270.038 -41.584)" />
    <path id="Path_93"
        d="M99.676,125.988a.564.564,0,1,0,.194-.676A.577.577,0,0,0,99.676,125.988Zm0,0"
        transform="translate(-94.009 -118.14)" />
    <path id="Path_94"
        d="M147.847,88.743a.564.564,0,1,0,.191-.674A.577.577,0,0,0,147.847,88.743Zm0,0"
        transform="translate(-139.459 -82.998)" />
    <path id="Path_95"
        d="M199.614,125.988a.564.564,0,1,0,.194-.676A.578.578,0,0,0,199.614,125.988Zm0,0"
        transform="translate(-188.303 -118.14)" />
    <path id="Path_96"
        d="M28.915,17.9A2.861,2.861,0,0,0,27,15.2V13.791a2.425,2.425,0,0,0,.512-.261,2.23,2.23,0,0,0,1.012-1.872,2.206,2.206,0,0,0-.419-1.3,1.822,1.822,0,0,0,.112-1.045,10.538,10.538,0,0,0-4.676-6.667A16.344,16.344,0,0,0,14.458,0,16.344,16.344,0,0,0,5.369,2.646,10.538,10.538,0,0,0,.693,9.312,1.821,1.821,0,0,0,.929,10.6a2.2,2.2,0,0,0-.267,1.059A2.23,2.23,0,0,0,1.674,13.53a2.459,2.459,0,0,0,.237.14V15.2A2.861,2.861,0,0,0,0,17.9v.115A2.849,2.849,0,0,0,.912,20.1a2.227,2.227,0,0,0,.327,2.521v2.038a3.953,3.953,0,0,0,3.948,3.948H23.729a3.953,3.953,0,0,0,3.948-3.948V22.879a2.23,2.23,0,0,0,.5-2.953,2.845,2.845,0,0,0,.736-1.912Zm-1.129,0v.115a1.73,1.73,0,0,1-1.727,1.727H17.3l3.6-3.569h5.156A1.729,1.729,0,0,1,27.786,17.9ZM8.56,16.171l.09.09.579.579L8.017,18.053,6.135,16.171Zm5.332,3.735-3.465-3.464h0l-.27-.27H19.3L15.522,19.9h0l-.814.814ZM1.8,9.52A9.424,9.424,0,0,1,6,3.581,15.2,15.2,0,0,1,14.458,1.13a15.2,15.2,0,0,1,8.456,2.451,9.425,9.425,0,0,1,4.2,5.939.71.71,0,0,1-.69.829H2.493A.709.709,0,0,1,1.8,9.52Zm.03,1.836a1.839,1.839,0,0,0,.661.123H26.423a1.842,1.842,0,0,0,.9-.234,1.1,1.1,0,0,1,.08.412,1.117,1.117,0,0,1-.512.934,1.33,1.33,0,0,1-1.138.157c-.188-.06-.366-.136-.56-.178a3.053,3.053,0,0,0-.64-.065,3.1,3.1,0,0,0-1.985.689,2.084,2.084,0,0,1-2.667,0,3.2,3.2,0,0,0-3.97,0,2.084,2.084,0,0,1-2.667,0,3.2,3.2,0,0,0-3.97,0,2.084,2.084,0,0,1-2.667,0,3.094,3.094,0,0,0-1.985-.689,2.859,2.859,0,0,0-1.1.207A1.333,1.333,0,0,1,2.3,12.592a1.117,1.117,0,0,1-.512-.934,1.088,1.088,0,0,1,.041-.3Zm1.32,2.583A2.743,2.743,0,0,0,4,13.745a1.945,1.945,0,0,1,.867-.1,2.043,2.043,0,0,1,1.105.473,3.2,3.2,0,0,0,3.97,0,2.085,2.085,0,0,1,2.667,0,3.2,3.2,0,0,0,3.97,0,2.085,2.085,0,0,1,2.667,0,3.2,3.2,0,0,0,3.969,0,2,2,0,0,1,1.334-.482,1.828,1.828,0,0,1,.672.123,2.616,2.616,0,0,0,.653.168v1.116H3.041v-1.1l.112,0ZM1.13,17.9a1.729,1.729,0,0,1,1.727-1.727h1.68l3.08,3.08a.565.565,0,0,0,.8,0l1.612-1.612,2.1,2.1H2.858A1.73,1.73,0,0,1,1.13,18.013Zm.754,2.8a2.865,2.865,0,0,0,.973.171h10.4l1.047,1.047a.571.571,0,0,0,.8,0l1.059-1.049h9.9A2.873,2.873,0,0,0,27,20.712a1.439,1.439,0,0,0,.187-.074c.019-.01.047-.032.07-.03s.039.042.051.067a1.093,1.093,0,0,1,.1.43,1.175,1.175,0,0,1-.875,1.124,1.337,1.337,0,0,1-.874-.048,2.853,2.853,0,0,0-1.1-.207,3.093,3.093,0,0,0-1.985.689,2.084,2.084,0,0,1-2.667,0,3.2,3.2,0,0,0-3.97,0,2.084,2.084,0,0,1-2.667,0,3.2,3.2,0,0,0-3.97,0,2.084,2.084,0,0,1-2.667,0,3.1,3.1,0,0,0-1.985-.689,2.853,2.853,0,0,0-1.1.207,1.331,1.331,0,0,1-1.146-.065,1.158,1.158,0,0,1-.591-.823,1.114,1.114,0,0,1,0-.316c0-.03.056-.288.084-.278Zm24.664,3.961a2.822,2.822,0,0,1-2.819,2.819H5.187a2.822,2.822,0,0,1-2.819-2.819V23.321a2.446,2.446,0,0,0,1.441-.036l.029-.01c.043-.015.087-.031.13-.049a1.748,1.748,0,0,1,.673-.123,2,2,0,0,1,1.334.482,3.2,3.2,0,0,0,3.97,0,2.085,2.085,0,0,1,2.667,0,3.2,3.2,0,0,0,3.97,0,2.084,2.084,0,0,1,2.667,0,3.2,3.2,0,0,0,3.97,0A2,2,0,0,1,24.55,23.1a1.864,1.864,0,0,1,.5.064c.155.043.3.111.455.155a2.437,2.437,0,0,0,1.043.059v1.28Zm0,0"
        transform="translate(-0.001 0)" />
    <path id="Path_97" d="M225.226,88.742a.565.565,0,1,0,.2-.676A.577.577,0,0,0,225.226,88.742Zm0,0"
        transform="translate(-212.468 -82.997)" />
    <path id="Path_98"
        d="M270.345,132.828a.564.564,0,1,0,.194-.676A.577.577,0,0,0,270.345,132.828Zm0,0"
        transform="translate(-255.04 -124.593)" />
    <path id="Path_99" d="M241.337,38.741a.565.565,0,1,0-.214-.67.576.576,0,0,0,.214.67Zm0,0"
        transform="translate(-227.473 -35.577)" />
</svg>
