<svg xmlns="http://www.w3.org/2000/svg" width="33" height="33" viewBox="0 0 33 33">
  <g id="Group_95" transform="translate(-332 -22)">
    <circle id="Ellipse_18" cx="16.5" cy="16.5" r="16.5" transform="translate(332 22)" fill="#fbaf03"/>
    <path id="shopping-cart" d="M19.9,46.184h-4.31l-2.418-5.536a.609.609,0,1,0-1.116.487l2.205,5.049H6.519l2.205-5.049a.609.609,0,1,0-1.116-.487L5.19,46.184H.88a.865.865,0,0,0-.859,1.048l2.27,9.886a.876.876,0,0,0,.859.672H17.626a.876.876,0,0,0,.859-.672l2.27-9.886a.865.865,0,0,0-.859-1.048ZM5.3,48.051a.609.609,0,0,1-.558-.852L5.2,46.152H6.533l-.67,1.534A.609.609,0,0,1,5.3,48.051Zm2.039,6.493a.609.609,0,0,1-1.217,0V50.08a.609.609,0,0,1,1.217,0Zm3.652,0a.609.609,0,0,1-1.217,0V50.08a.609.609,0,0,1,1.217,0Zm3.652,0a.609.609,0,0,1-1.217,0V50.08a.609.609,0,0,1,1.217,0ZM15.714,48a.608.608,0,0,1-.8-.314l-.67-1.534h1.328l.457,1.047A.609.609,0,0,1,15.714,48Z" transform="translate(337.766 -10.76)" fill="#fff"/>
  </g>
</svg>
