<svg xmlns="http://www.w3.org/2000/svg" width="26.728" height="26.726" viewBox="0 0 26.728 26.726">
    <g id="payment-method" transform="translate(0 -0.023)">
        <g id="Group_155" transform="translate(7.974 20.061)">
            <g id="Group_154">
                <path id="Path_122"
                    d="M153.784,384.277a.545.545,0,0,0-.03-.1.528.528,0,0,0-.048-.09.507.507,0,0,0-.144-.144.516.516,0,0,0-.09-.048.489.489,0,0,0-.1-.03.513.513,0,0,0-.2,0,.5.5,0,0,0-.1.03.53.53,0,0,0-.09.048.507.507,0,0,0-.144.144.493.493,0,0,0-.048.09.5.5,0,0,0-.03.1.5.5,0,0,0,0,.2.489.489,0,0,0,.03.1.482.482,0,0,0,.048.09.507.507,0,0,0,.144.144.528.528,0,0,0,.09.048.5.5,0,0,0,.1.03.5.5,0,0,0,.2,0,.489.489,0,0,0,.1-.03.518.518,0,0,0,.09-.048.507.507,0,0,0,.144-.144.515.515,0,0,0,.048-.09.527.527,0,0,0,.03-.1.5.5,0,0,0,0-.2Z"
                    transform="translate(-152.75 -383.857)" />
            </g>
        </g>
        <g id="Group_157" transform="translate(0 16.201)">
            <g id="Group_156">
                <path id="Path_123"
                    d="M24.013,314.362l-.006-.016a2.171,2.171,0,0,0-2.941-1.084l-3.637,1.006a2.384,2.384,0,0,0-1.476-1.454l-.014,0-4-1.357a4.123,4.123,0,0,0-3.327-1.531,4.175,4.175,0,0,0-3.261,1.955H.522A.522.522,0,0,0,0,312.4v6.582a.522.522,0,0,0,.522.522h3.1a.522.522,0,0,0,.522-.522v-.451H5.6a.522.522,0,0,0,.522-.522v-.15a3.7,3.7,0,0,1,1.907.684,31.592,31.592,0,0,0,3.136,1.6l.023.01a4.686,4.686,0,0,0,1.68.317,4.161,4.161,0,0,0,1.73-.37l8.039-2.878.042-.017A2.228,2.228,0,0,0,24.013,314.362Zm-20.91,4.1H1.044v-5.538H3.1Zm1.978-.973H4.148v-4.565h.934Zm17.183-1.24-8.035,2.877-.024.009-.021.009a3.384,3.384,0,0,1-2.6.044,30.241,30.241,0,0,1-3.031-1.548,4.7,4.7,0,0,0-2.428-.826v-4.2a3.224,3.224,0,0,1,2.489-1.641,3.012,3.012,0,0,1,2.556,1.2.522.522,0,0,0,.277.221L15.6,313.8a1.171,1.171,0,0,1,.852,1.382,1.017,1.017,0,0,1-1.25.7L10.521,314.4a.522.522,0,1,0-.315,1l4.685,1.485.015,0a2.049,2.049,0,0,0,1.567-.182,2.047,2.047,0,0,0,.979-1.237q.018-.063.032-.127l3.92-1.086c.566-.193,1.309-.263,1.64.5C23.386,315.644,22.5,316.136,22.265,316.247Z"
                    transform="translate(0 -309.922)" />
            </g>
        </g>
        <g id="Group_159" transform="translate(17.71 6.469)">
            <g id="Group_158">
                <path id="Path_124"
                    d="M340.284,123.918a.506.506,0,0,0-.03-.1.494.494,0,0,0-.048-.09.507.507,0,0,0-.144-.144.53.53,0,0,0-.09-.048.52.52,0,0,0-.3-.03.491.491,0,0,0-.1.03.516.516,0,0,0-.09.048.507.507,0,0,0-.144.144.528.528,0,0,0-.048.09.5.5,0,0,0-.03.1.5.5,0,0,0,0,.2.489.489,0,0,0,.03.1.514.514,0,0,0,.048.09.508.508,0,0,0,.144.144.516.516,0,0,0,.09.048.527.527,0,0,0,.1.03.514.514,0,0,0,.1.01.523.523,0,0,0,.1-.01.552.552,0,0,0,.1-.03.53.53,0,0,0,.09-.048.508.508,0,0,0,.144-.144.481.481,0,0,0,.048-.09.49.49,0,0,0,.03-.1.527.527,0,0,0,0-.2Z"
                    transform="translate(-339.25 -123.498)" />
            </g>
        </g>
        <g id="Group_161" transform="translate(1.55 0.023)">
            <g id="Group_160">
                <path id="Path_125"
                    d="M54.347,1.791h-3.1a.522.522,0,0,0-.522.522v.451H49.266a.522.522,0,0,0-.522.522v.15a3.7,3.7,0,0,1-1.907-.684,31.588,31.588,0,0,0-3.136-1.6l-.023-.01a4.441,4.441,0,0,0-3.409.054l-2.1.752L36.4.176a.522.522,0,0,0-.738,0L29.846,5.989a.518.518,0,0,0,0,.738l9.934,9.934a.564.564,0,0,0,.738,0l5.307-5.307c.138.012.281.018.43.018a4.174,4.174,0,0,0,3.261-1.955h4.832a.522.522,0,0,0,.522-.522V2.313A.522.522,0,0,0,54.347,1.791ZM36.028,1.284l1.19,1.19a2.276,2.276,0,0,1-2.38,0ZM32.143,7.548l-1.19-1.19,1.19-1.19a2.276,2.276,0,0,1,0,2.38Zm8.006,8.006-1.19-1.19a2.273,2.273,0,0,1,2.379,0Zm1.942-1.942a3.317,3.317,0,0,0-3.883,0L32.895,8.3a3.318,3.318,0,0,0,0-3.884l1.191-1.191a3.318,3.318,0,0,0,3.884,0L39.1,4.355a2.069,2.069,0,0,0-1.553,1.138,2.975,2.975,0,1,0,3.421,3.683l1.763.6a3.333,3.333,0,0,0,.553,2.646ZM38.916,8.48l.014,0,1.044.354a1.932,1.932,0,1,1-2.622-2.206A2.311,2.311,0,0,0,38.916,8.48Zm5.118,3.188a2.283,2.283,0,0,1-.334-1.086,4.059,4.059,0,0,0,.921.5Zm4.709-2.981a3.224,3.224,0,0,1-2.489,1.641,3.8,3.8,0,0,1-.545-.038h0a2.99,2.99,0,0,1-1.934-1.058c-.011-.016-.056-.075-.063-.085a.52.52,0,0,0-.288-.239L39.273,7.5a1.171,1.171,0,0,1-.852-1.381h0a1.017,1.017,0,0,1,1.249-.7L44.348,6.9a.522.522,0,0,0,.315-1l-3.72-1.179-.032-.032h0L38.984,2.763l1.655-.593.018-.007.005,0,.021-.009a3.383,3.383,0,0,1,2.6-.044,30.24,30.24,0,0,1,3.031,1.548,4.7,4.7,0,0,0,2.428.826Zm1.978-.314h-.934V3.808h.934Zm3.1,0h-2.06V2.835h2.06Z"
                    transform="translate(-29.691 -0.023)" />
            </g>
        </g>
    </g>
</svg>
