<svg xmlns="http://www.w3.org/2000/svg" width="25.828" height="26.5" viewBox="0 0 25.828 26.5">
    <g id="general-mail" transform="translate(-5.076)">
        <g id="Group_165" transform="translate(5.076)">
            <g id="Group_164" transform="translate(0)">
                <path id="Path_131"
                    d="M130.514,112.086l-5.079-3.951a.22.22,0,0,0-.271,0l-5.079,3.951a.221.221,0,0,0-.085.174v6.007a.221.221,0,0,0,.221.221h10.159a.221.221,0,0,0,.221-.221V112.26A.221.221,0,0,0,130.514,112.086Zm-5.215,2.908-4.181-2.513h8.362Z"
                    transform="translate(-112.385 -100.927)" fill="#E91E63" />
                <path id="Path_132"
                    d="M27.773,20.239a3.127,3.127,0,0,0-1.042.178l-1.363-1.362a9.374,9.374,0,0,0,0-11.609l1.363-1.363a3.13,3.13,0,1,0-1.91-1.91L23.409,5.584a9.374,9.374,0,0,0-10.84,0L11.159,4.173a3.13,3.13,0,1,0-1.91,1.91l1.363,1.363a9.374,9.374,0,0,0,0,11.609L9.249,20.417a3.13,3.13,0,1,0,1.91,1.91l1.411-1.411a9.374,9.374,0,0,0,10.84,0l1.411,1.411a3.131,3.131,0,1,0,2.952-2.089Zm-9.783.63a7.619,7.619,0,1,1,7.619-7.619A7.619,7.619,0,0,1,17.99,20.869Z"
                    transform="translate(-5.076)" fill="#E91E63" />
            </g>
        </g>
    </g>
</svg>
