<svg xmlns="http://www.w3.org/2000/svg" width="27.704" height="26.5" viewBox="0 0 27.704 26.5">
    <g id="logout" transform="translate(0 -0.332)">
        <path id="Path_133"
            d="M167.7,220.807H150.235a.9.9,0,1,1,0-1.807H167.7a.9.9,0,1,1,0,1.807Zm0,0"
            transform="translate(-140.9 -206.321)" fill="#E91E63" />
        <path id="Path_134"
            d="M155.061,145.1a.9.9,0,0,1-.639-.265l-4.818-4.818a.9.9,0,0,1,0-1.278l4.818-4.818a.9.9,0,0,1,1.278,1.278l-4.18,4.18,4.18,4.18a.9.9,0,0,1-.64,1.542Zm0,0"
            transform="translate(-140.908 -125.793)" fill="#E91E63" />
        <path id="Path_135"
            d="M13.25,26.832a13.25,13.25,0,1,1,12.332-18.1A.9.9,0,1,1,23.9,9.4a11.443,11.443,0,1,0,0,8.373.9.9,0,1,1,1.682.661,13.182,13.182,0,0,1-12.332,8.4Zm0,0"
            fill="#E91E63" />
    </g>
</svg>
