<svg id="menu_2_" xmlns="http://www.w3.org/2000/svg" width="26.909" height="26.909"
    viewBox="0 0 26.909 26.909">
    <g id="Group_113">
        <g id="Group_112">
            <path id="Path_88"
                d="M9.292,0H3.112A3.115,3.115,0,0,0,0,3.112v6.18A3.115,3.115,0,0,0,3.112,12.4h6.18A3.115,3.115,0,0,0,12.4,9.292V3.112A3.115,3.115,0,0,0,9.292,0ZM10.3,9.292a1.011,1.011,0,0,1-1.01,1.01H3.112A1.011,1.011,0,0,1,2.1,9.292V3.112A1.011,1.011,0,0,1,3.112,2.1h6.18a1.011,1.011,0,0,1,1.01,1.01Z"
                fill="#fbaf03" />
        </g>
    </g>
    <g id="Group_115" transform="translate(14.506)">
        <g id="Group_114">
            <path id="Path_89"
                d="M285.25,0h-6.1A3.157,3.157,0,0,0,276,3.153v6.1a3.157,3.157,0,0,0,3.153,3.153h6.1A3.157,3.157,0,0,0,288.4,9.25v-6.1A3.157,3.157,0,0,0,285.25,0ZM286.3,9.25A1.052,1.052,0,0,1,285.25,10.3h-6.1A1.052,1.052,0,0,1,278.1,9.25v-6.1A1.052,1.052,0,0,1,279.153,2.1h6.1A1.052,1.052,0,0,1,286.3,3.153Z"
                transform="translate(-276)" fill="#fbaf03" />
        </g>
    </g>
    <g id="Group_117" transform="translate(0 14.506)">
        <g id="Group_116">
            <path id="Path_90"
                d="M9.292,276H3.112A3.115,3.115,0,0,0,0,279.112v6.18A3.115,3.115,0,0,0,3.112,288.4h6.18a3.115,3.115,0,0,0,3.112-3.112v-6.18A3.115,3.115,0,0,0,9.292,276Zm1.01,9.292a1.011,1.011,0,0,1-1.01,1.01H3.112a1.011,1.011,0,0,1-1.01-1.01v-6.18a1.011,1.011,0,0,1,1.01-1.009h6.18a1.011,1.011,0,0,1,1.01,1.009Z"
                transform="translate(0 -276)" fill="#fbaf03" />
        </g>
    </g>
    <g id="Group_119" transform="translate(14.506 14.506)">
        <g id="Group_118">
            <path id="Path_91"
                d="M285.25,276h-6.1A3.157,3.157,0,0,0,276,279.153v6.1a3.157,3.157,0,0,0,3.153,3.153h6.1a3.157,3.157,0,0,0,3.153-3.153v-6.1A3.157,3.157,0,0,0,285.25,276Zm1.051,9.25a1.052,1.052,0,0,1-1.051,1.051h-6.1a1.052,1.052,0,0,1-1.051-1.051v-6.1a1.052,1.052,0,0,1,1.051-1.051h6.1a1.052,1.052,0,0,1,1.051,1.051Z"
                transform="translate(-276 -276)" fill="#fbaf03" />
        </g>
    </g>
</svg>
