<svg id="menu_1_" xmlns="http://www.w3.org/2000/svg" width="36.805" height="37.195"
    viewBox="0 0 36.805 37.195">
    <path id="Path_68"
        d="M120.386,211.85a.545.545,0,0,0-.706.309A154.777,154.777,0,0,1,110.3,231.9a1.252,1.252,0,0,1-1.477.567,97.006,97.006,0,0,1-16-6.891.545.545,0,0,0-.52.958,98.1,98.1,0,0,0,16.179,6.968,2.344,2.344,0,0,0,2.765-1.066,155.87,155.87,0,0,0,9.445-19.881A.545.545,0,0,0,120.386,211.85Z"
        transform="translate(-85.53 -196.424)" fill="#fbaf03" />
    <path id="Path_69"
        d="M38.353,9.33q-1.076-.649-2.17-1.269l-.244-2.589a1.9,1.9,0,0,0-2.073-1.715l-5.123.482q-1.928-.889-3.886-1.69a.544.544,0,0,0-.317-.473L20.419.187A.545.545,0,0,0,19.7.456l-.059.128c-.461-.159-.927-.315-1.391-.468a2.347,2.347,0,0,0-2.516.711L15.013.5a1.762,1.762,0,0,0-1.468,3.2l.438.2q-.285.528-.565,1.059l-.371-.17a1.762,1.762,0,0,0-1.468,3.2l.225.1q-.268.535-.532,1.074l-.192-.088a1.762,1.762,0,0,0-1.468,3.2l.142.065q-.252.543-.5,1.089l-.142-.065a1.762,1.762,0,1,0-1.468,3.2l.193.088q-.236.552-.466,1.1l-.226-.1a1.762,1.762,0,1,0-1.468,3.2l.371.17q-.218.558-.433,1.119l-.438-.2a1.762,1.762,0,0,0-1.468,3.2l.718.329a2.346,2.346,0,0,0,1.1,2.37c.665.4,1.344.8,2.016,1.184a.545.545,0,1,0,.54-.946c-.665-.38-1.336-.773-1.994-1.17a1.252,1.252,0,0,1-.6-.952A1.762,1.762,0,0,0,6.855,22.73l-.249-.114c.142-.373.287-.747.432-1.12l.316.145a1.762,1.762,0,0,0,1.468-3.2l-.462-.212q.23-.553.466-1.1l.5.227a1.762,1.762,0,1,0,1.468-3.2l-.546-.25q.247-.545.5-1.089l.546.25a1.762,1.762,0,1,0,1.468-3.2l-.5-.227q.264-.538.533-1.074l.463.212a1.762,1.762,0,0,0,1.468-3.2l-.316-.145q.281-.53.566-1.058l.249.114a1.762,1.762,0,0,0,1.571-3.152,1.256,1.256,0,0,1,1.114-.167c.425.139.851.283,1.274.428l-1.87,4.079a.545.545,0,0,0,.643.752l2.417-.679L21.435,8a.545.545,0,0,0,.494.314h0A.545.545,0,0,0,22.424,8l2.034-4.438a97.26,97.26,0,0,1,13.332,6.7,1.253,1.253,0,0,1,.534,1.489c-.229.637-.471,1.295-.719,1.956a.545.545,0,1,0,1.02.383c.25-.666.493-1.329.724-1.97a2.346,2.346,0,0,0-1-2.79ZM6.751,24.1a.672.672,0,0,1-.91.845L5.3,24.7h0l-1.142-.523a.672.672,0,0,1,.56-1.222l1.679.77a.668.668,0,0,1,.35.377ZM8.7,20.32a.672.672,0,0,1-.891.331l-1.679-.77a.672.672,0,0,1,.56-1.222l1.679.77a.673.673,0,0,1,.331.891Zm1.967-4.293a.673.673,0,0,1-.891.331L8.1,15.589a.672.672,0,1,1,.56-1.222l1.679.77A.673.673,0,0,1,10.667,16.027Zm1.968-4.293a.673.673,0,0,1-.891.331l-1.679-.77a.672.672,0,1,1,.56-1.222l1.679.77a.673.673,0,0,1,.331.891ZM14.6,7.442a.673.673,0,0,1-.891.331L12.031,7a.672.672,0,0,1,.56-1.222l1.679.77A.673.673,0,0,1,14.6,7.442Zm1.968-4.293a.672.672,0,0,1-.891.331L14,2.711a.672.672,0,0,1,.56-1.222l1.679.77A.673.673,0,0,1,16.569,3.149Zm17.4,1.693a.813.813,0,0,1,.885.733l.173,1.839q-2.151-1.185-4.357-2.261ZM21.923,6.477l-.761-1.626a.545.545,0,0,0-.641-.294l-1.729.486L20.46,1.405l3.13,1.435Z"
        transform="translate(-2.68 0)" fill="#fbaf03" />
    <path id="Path_70"
        d="M312.016,158.02a.545.545,0,0,0-.72.275l-1.178,2.637-.674-3.823a.545.545,0,0,0-1.032-.132l-1.908,4.162a.545.545,0,0,0,.991.454l1.179-2.573.643,3.644a.6.6,0,0,0,.592.519.638.638,0,0,0,.574-.4l1.808-4.047A.545.545,0,0,0,312.016,158.02Z"
        transform="translate(-284.385 -145.278)" fill="#fbaf03" />
    <path id="Path_71"
        d="M183.96,104.337a.648.648,0,0,0-1.176-.44l-2.594,3.725a.545.545,0,0,0,.894.623l1.529-2.2-.394,2.741c0,.007,0,.013,0,.02a.648.648,0,0,0,1.122.507l.013-.015,1.793-2.1-.642,2.613a.545.545,0,1,0,1.058.26l1.087-4.424a.648.648,0,0,0-1.109-.586l-.013.015-2.012,2.352.443-3.078Z"
        transform="translate(-167.202 -96.092)" fill="#fbaf03" />
    <path id="Path_72"
        d="M265.32,137.048l-1.741-.8a.545.545,0,0,0-.722.268l-.947,2.066h0l-.947,2.066a.545.545,0,0,0,.268.722l1.741.8a.545.545,0,1,0,.454-.991l-1.246-.571.493-1.075,1.117.512a.545.545,0,1,0,.454-.991l-1.117-.512.493-1.075,1.246.571a.545.545,0,1,0,.454-.991Z"
        transform="translate(-242.152 -126.306)" fill="#fbaf03" />
    <path id="Path_73"
        d="M374.706,184.5a.545.545,0,0,0-.991-.454l-1.315,2.869a1.867,1.867,0,0,0,.2,1.9,2.085,2.085,0,0,0,.9.772,2.212,2.212,0,0,0,.93.209h.078a1.888,1.888,0,0,0,1.786-1.1l1.314-2.866a.545.545,0,0,0-.991-.454l-1.314,2.866c-.095.207-.276.448-.836.468a1.1,1.1,0,0,1-.513-.109,1,1,0,0,1-.438-.372.8.8,0,0,1-.121-.858Z"
        transform="translate(-345.376 -170.382)" fill="#fbaf03" />
    <path id="Path_74"
        d="M159.31,219.706h0l-1.156-3.111a.545.545,0,0,0-1.022.379l1.686,4.539a2.247,2.247,0,0,0,2.895,1.327l.245-.091,1.033,2.781a1.607,1.607,0,0,0-.472,1.791l1.374,3.7a1.611,1.611,0,1,0,3.02-1.122l-1.374-3.7a1.614,1.614,0,0,0-1.527-1.05l-1.033-2.78.245-.091a2.251,2.251,0,0,0,1.327-2.895l-1.686-4.539a.545.545,0,0,0-1.022.379L163,218.334h0a1.158,1.158,0,0,1-.255,1.213l-1.521-4.094a.545.545,0,0,0-1.022.379l1.56,4.2-.406.151-1.56-4.2a.545.545,0,1,0-1.022.379l1.52,4.094a1.158,1.158,0,0,1-.985-.752Zm5.208,6.872,1.374,3.7a.521.521,0,0,1-.977.363l-1.374-3.7a.521.521,0,1,1,.977-.363Zm-.917-6.35a1.161,1.161,0,0,1-.756,1.028l-1.512.562a1.162,1.162,0,0,1-1.244-.286,2.226,2.226,0,0,0,.308.022,2.252,2.252,0,0,0,.785-.142l.042-.015h0l1.469-.546A2.241,2.241,0,0,0,163.6,220.228Z"
        transform="translate(-145.88 -198.906)" fill="#fbaf03" />
</svg>
