<svg xmlns="http://www.w3.org/2000/svg" width="29.612" height="29.615" viewBox="0 0 29.612 29.615">
    <path id="home"
        d="M29.317,12.88l0,0L17.234.8a2.726,2.726,0,0,0-3.856,0L1.3,12.872l-.012.012a2.725,2.725,0,0,0,1.814,4.645c.028,0,.056,0,.084,0h.481v8.89a3.2,3.2,0,0,0,3.191,3.191h4.726a.868.868,0,0,0,.868-.868v-6.97a1.458,1.458,0,0,1,1.456-1.456H16.7a1.457,1.457,0,0,1,1.456,1.456v6.97a.868.868,0,0,0,.868.868H23.75a3.194,3.194,0,0,0,3.191-3.191v-8.89h.446a2.727,2.727,0,0,0,1.93-4.653Zm-1.229,2.627a.985.985,0,0,1-.7.291H26.073a.868.868,0,0,0-.868.868v9.758a1.457,1.457,0,0,1-1.456,1.456H19.891v-6.1A3.2,3.2,0,0,0,16.7,18.586H13.912a3.2,3.2,0,0,0-3.191,3.191v6.1H6.862a1.457,1.457,0,0,1-1.456-1.456V16.666a.868.868,0,0,0-.868-.868H3.247l-.041,0a.99.99,0,0,1-.683-1.691h0l12.08-12.08a.991.991,0,0,1,1.4,0L28.084,14.1l.006.005a.993.993,0,0,1,0,1.4Zm0,0"
        transform="translate(-0.5 0.001)" fill="#fbaf03" />
</svg>
