<svg xmlns="http://www.w3.org/2000/svg" width="25.225" height="27.363" viewBox="0 0 25.225 27.363">
    <path id="order"
        d="M14.415,1.909v9.272h4.649V1.909a2.325,2.325,0,0,0-4.649,0ZM2.98,5.956A.8.8,0,0,1,4.114,4.823l.439.439L5.973,3.843a2.481,2.481,0,1,0,.894,1.373L5.12,6.962a.8.8,0,0,1-1.134,0ZM7.112,2.7,8.118,1.7A.8.8,0,1,1,9.252,2.831L8.107,3.975a4.086,4.086,0,1,1-1-1.271ZM-.549,19.465a.8.8,0,0,0-.8.8.8.8,0,0,0,.8.8.8.8,0,0,0,.8-.8A.8.8,0,0,0-.549,19.465Zm3.207,1.6a.8.8,0,0,1,0-1.6h7.749a.8.8,0,0,1,0,1.6Zm-3.207-4.81a.8.8,0,0,0-.8.8.8.8,0,0,0,.8.8.8.8,0,0,0,.8-.8A.8.8,0,0,0-.549,16.258Zm3.207,1.6a.8.8,0,0,1,0-1.6h7.749a.8.8,0,0,1,0,1.6Zm11.757-5.077V24.542a.8.8,0,0,1-.8.8H-3.755a.8.8,0,0,1-.8-.8V1.829A3.854,3.854,0,0,1-.709-2.019H16.74a3.938,3.938,0,0,1,3.928,3.928V11.983a.8.8,0,0,1-.8.8Zm-.837-13.2a3.9,3.9,0,0,0-.766,2.325V23.74H-2.954V1.829A2.25,2.25,0,0,1-.709-.416ZM-.549,13.052a.8.8,0,0,0-.8.8.8.8,0,0,0,.8.8.8.8,0,0,0,.8-.8A.8.8,0,0,0-.549,13.052Zm3.207,1.6h7.749a.8.8,0,0,0,0-1.6H2.658a.8.8,0,0,0,0,1.6Zm0,0"
        transform="translate(4.557 2.019)" fill="#fbaf03" fill-rule="evenodd" />
</svg>
