<svg id="support" xmlns="http://www.w3.org/2000/svg" width="26.968" height="26.968"
    viewBox="0 0 26.968 26.968">
    <path id="Path_75"
        d="M70.545,0A10.323,10.323,0,0,0,60.234,10.311V19.83a2.38,2.38,0,1,0,4.759,0V11.9a2.382,2.382,0,0,0-2.38-2.38,2.353,2.353,0,0,0-.76.136,8.716,8.716,0,0,1,17.383-.006,2.337,2.337,0,0,0-.759-.129A2.382,2.382,0,0,0,76.1,11.9V19.83a2.382,2.382,0,0,0,2.38,2.38,2.352,2.352,0,0,0,.793-.146V23a.794.794,0,0,1-.793.793h-5.7a2.38,2.38,0,1,0,0,1.586h5.7A2.382,2.382,0,0,0,80.857,23V10.311A10.323,10.323,0,0,0,70.545,0Zm0,0"
        transform="translate(-57.061)" fill="#E91E63" />
    <path id="Path_76"
        d="M481.883,213.6v9.226a2.376,2.376,0,0,0,1.586-2.233v-4.759A2.376,2.376,0,0,0,481.883,213.6Zm0,0"
        transform="translate(-456.501 -202.347)" fill="#E91E63" />
    <path id="Path_77"
        d="M0,215.831v4.759a2.376,2.376,0,0,0,1.586,2.233V213.6A2.376,2.376,0,0,0,0,215.831Zm0,0"
        transform="translate(0 -202.347)" fill="#E91E63" />
</svg>
