<svg xmlns="http://www.w3.org/2000/svg" width="116.641" height="105.478" viewBox="0 0 116.641 105.478">
  <g id="delivery" transform="translate(0 -24.499)">
    <path id="Path_1322"  d="M92.948,82.82a23.484,23.484,0,0,0-4.3.4l-12.788-37.3h15.5c.89,1.2,1.948,3.079,1.686,4.645-.21,1.256-1.372,2.421-3.453,3.462a3.417,3.417,0,0,0,3.057,6.113c5.187-2.594,6.749-6.05,7.145-8.493.967-5.958-3.879-11-4.434-11.56a3.417,3.417,0,0,0-2.416-1H71.078A3.417,3.417,0,0,0,67.846,43.6l6.571,19.167H50.8V58.443A10.263,10.263,0,0,0,40.551,48.192H36.223V27.916A3.417,3.417,0,0,0,32.805,24.5H3.417A3.417,3.417,0,0,0,0,27.916V66.189a3.414,3.414,0,0,0,3.417,3.417H41.4L32.56,84.561a23.337,23.337,0,0,0-8.867-1.741A23.579,23.579,0,1,0,46.913,109.7h6.168v7.518a3.417,3.417,0,0,0,3.417,3.417h5.468a3.417,3.417,0,0,0,0-6.834h-2.05v-4.829l.568-1.048.013-.024,18-33.233,3.692,10.769A23.642,23.642,0,1,0,92.948,82.82Zm-52.4-27.793a3.421,3.421,0,0,1,3.417,3.417v4.328H36.223V55.026ZM29.16,62.772H6.834V31.334H29.388V62.772Zm-5.468,60.371A17.084,17.084,0,0,1,6.834,106.285a16.745,16.745,0,1,1,16.858,16.858ZM55.45,102.868H46.908a23.468,23.468,0,0,0-8.469-14.821l10.9-18.44H73.464Zm37.5,20.276a16.745,16.745,0,1,1,16.858-16.858A17.084,17.084,0,0,1,92.948,123.143Z" fill="#fff"/>
    <circle id="Ellipse_69"  cx="3.5" cy="3.5" r="3.5" transform="translate(89.321 102.738)" fill="#fff"/>
    <circle id="Ellipse_70" cx="3.5" cy="3.5" r="3.5" transform="translate(20.321 102.738)" fill="#fff"/>
  </g>
</svg>
