<svg id="gears" xmlns="http://www.w3.org/2000/svg" width="26.589" height="26.589"
    viewBox="0 0 26.589 26.589">
    <g id="Group_98">
        <g id="Group_97">
            <path id="Path_78"
                d="M13.647,16.473a.42.42,0,0,0-.559-.2,6.685,6.685,0,0,1-1.062.4.42.42,0,0,0-.3.322l-.444,2.221a.472.472,0,0,1-.462.378H9.61a.472.472,0,0,1-.462-.378L8.7,16.993a.42.42,0,0,0-.3-.322,6.671,6.671,0,0,1-1.474-.611.42.42,0,0,0-.439.016L4.608,17.333a.472.472,0,0,1-.594-.059l-.857-.857a.472.472,0,0,1-.059-.594l1.256-1.884a.42.42,0,0,0,.016-.439,6.669,6.669,0,0,1-.611-1.474.42.42,0,0,0-.322-.3l-2.221-.444a.472.472,0,0,1-.378-.462V9.61a.472.472,0,0,1,.378-.462L3.438,8.7a.42.42,0,0,0,.322-.3,6.671,6.671,0,0,1,.611-1.474.42.42,0,0,0-.016-.439L3.1,4.608a.472.472,0,0,1,.059-.594l.857-.857A.472.472,0,0,1,4.608,3.1L6.493,4.355a.42.42,0,0,0,.439.016A6.671,6.671,0,0,1,8.406,3.76a.42.42,0,0,0,.3-.322l.444-2.221A.472.472,0,0,1,9.61.839h1.212a.472.472,0,0,1,.462.378l.444,2.221a.42.42,0,0,0,.3.322,6.671,6.671,0,0,1,1.474.611.42.42,0,0,0,.439-.016L15.824,3.1a.472.472,0,0,1,.594.059l.857.857a.472.472,0,0,1,.059.594L16.077,6.493a.42.42,0,0,0-.016.439,6.671,6.671,0,0,1,.611,1.474.42.42,0,0,0,.322.3l2.221.444a.472.472,0,0,1,.378.462v1.212a.472.472,0,0,1-.378.462l-2.221.444a.42.42,0,0,0-.322.3,6.682,6.682,0,0,1-.409,1.087.42.42,0,0,0,.757.363,7.53,7.53,0,0,0,.386-.975l1.973-.395a1.314,1.314,0,0,0,1.053-1.285V9.61a1.314,1.314,0,0,0-1.053-1.285l-1.973-.395a7.513,7.513,0,0,0-.49-1.182l1.116-1.674a1.314,1.314,0,0,0-.164-1.653l-.857-.857A1.314,1.314,0,0,0,15.358,2.4L13.684,3.516a7.518,7.518,0,0,0-1.182-.49l-.395-1.973A1.314,1.314,0,0,0,10.822,0H9.61A1.314,1.314,0,0,0,8.325,1.053L7.931,3.026a7.513,7.513,0,0,0-1.182.49L5.074,2.4a1.314,1.314,0,0,0-1.653.164l-.857.857A1.314,1.314,0,0,0,2.4,5.074L3.516,6.748a7.515,7.515,0,0,0-.49,1.182l-1.973.395A1.314,1.314,0,0,0,0,9.61v1.212a1.314,1.314,0,0,0,1.053,1.285l1.973.395a7.512,7.512,0,0,0,.49,1.182L2.4,15.358a1.314,1.314,0,0,0,.164,1.653l.857.857a1.314,1.314,0,0,0,1.653.164l1.674-1.116a7.516,7.516,0,0,0,1.182.49l.395,1.973A1.314,1.314,0,0,0,9.61,20.432h1.212a1.314,1.314,0,0,0,1.285-1.053l.395-1.973a7.521,7.521,0,0,0,.947-.373A.42.42,0,0,0,13.647,16.473Z"
                fill="#FBAF03" />
            <path id="Path_79"
                d="M137.9,112.9a.42.42,0,0,0,.565-.182,4.72,4.72,0,0,0-7.5-5.53.42.42,0,0,0,.586.6,3.88,3.88,0,0,1,6.162,4.546A.42.42,0,0,0,137.9,112.9Z"
                transform="translate(-124.049 -100.347)" fill="#FBAF03" />
            <path id="Path_80"
                d="M106.634,161.706a.42.42,0,0,0-.534.26,4.72,4.72,0,0,0,7.229,5.361.42.42,0,0,0-.492-.68,3.882,3.882,0,0,1-5.942-4.407A.42.42,0,0,0,106.634,161.706Z"
                transform="translate(-100.348 -153.286)" fill="#FBAF03" />
            <path id="Path_81"
                d="M260.822,253.391l-1.214-.243a5.079,5.079,0,0,0-.266-.643l.687-1.03a1.008,1.008,0,0,0-.126-1.268l-.563-.563a1.008,1.008,0,0,0-1.268-.126l-1.03.687a5.071,5.071,0,0,0-.643-.266l-.243-1.214a1.008,1.008,0,0,0-.985-.808h-.8a1.008,1.008,0,0,0-.986.808l-.243,1.214a5.089,5.089,0,0,0-.643.266l-1.03-.687a1.008,1.008,0,0,0-1.268.126l-.563.563a1.008,1.008,0,0,0-.126,1.268l.687,1.03a5.074,5.074,0,0,0-.343.892.42.42,0,1,0,.809.226,4.236,4.236,0,0,1,.388-.937.42.42,0,0,0-.016-.439l-.826-1.238a.166.166,0,0,1,.021-.209l.563-.563a.166.166,0,0,1,.209-.021l1.238.826a.42.42,0,0,0,.439.016,4.238,4.238,0,0,1,.937-.388.42.42,0,0,0,.3-.322l.292-1.459a.166.166,0,0,1,.162-.133h.8a.166.166,0,0,1,.162.133l.292,1.459a.42.42,0,0,0,.3.322,4.237,4.237,0,0,1,.937.388.42.42,0,0,0,.439-.016l1.238-.826a.166.166,0,0,1,.209.021l.563.563a.166.166,0,0,1,.021.209l-.826,1.238a.42.42,0,0,0-.016.439,4.242,4.242,0,0,1,.388.937.42.42,0,0,0,.322.3l1.459.292a.166.166,0,0,1,.133.162v.8a.166.166,0,0,1-.133.162l-1.459.292a.42.42,0,0,0-.322.3,4.237,4.237,0,0,1-.388.937.42.42,0,0,0,.016.439l.826,1.238a.166.166,0,0,1-.021.209l-.563.563a.166.166,0,0,1-.209.021l-1.238-.826a.42.42,0,0,0-.439-.016,4.237,4.237,0,0,1-.937.388.42.42,0,0,0-.3.322l-.292,1.459a.166.166,0,0,1-.162.133h-.8a.166.166,0,0,1-.162-.133l-.292-1.459a.42.42,0,0,0-.3-.322,4.237,4.237,0,0,1-.937-.388.42.42,0,0,0-.439.017l-1.238.826a.166.166,0,0,1-.209-.021l-.563-.563a.166.166,0,0,1-.021-.209l.826-1.238a.42.42,0,0,0,.016-.439,4.238,4.238,0,0,1-.388-.937.419.419,0,0,0-.322-.3l-1.459-.292a.166.166,0,0,1-.133-.162v-.8a.166.166,0,0,1,.133-.162l.089-.018a.42.42,0,1,0-.165-.823l-.089.018a1.008,1.008,0,0,0-.808.986v.8a1.008,1.008,0,0,0,.808.986l1.214.243a5.09,5.09,0,0,0,.266.643l-.687,1.03a1.008,1.008,0,0,0,.126,1.268l.563.563a1.008,1.008,0,0,0,1.268.126l1.03-.687a5.074,5.074,0,0,0,.643.266l.243,1.214a1.008,1.008,0,0,0,.986.808h.8a1.008,1.008,0,0,0,.985-.808l.243-1.214a5.075,5.075,0,0,0,.643-.266l1.03.687a1.008,1.008,0,0,0,1.268-.126l.563-.563a1.008,1.008,0,0,0,.126-1.268l-.687-1.03a5.081,5.081,0,0,0,.266-.643l1.214-.243a1.008,1.008,0,0,0,.808-.986v-.8A1.008,1.008,0,0,0,260.822,253.391Z"
                transform="translate(-235.04 -235.042)" fill="#FBAF03" />
            <path id="Path_82"
                d="M337.036,335.526a1.513,1.513,0,0,1,1.511,1.511.42.42,0,0,0,.84,0,2.351,2.351,0,1,0-2.351,2.351,2.329,2.329,0,0,0,1.436-.49.42.42,0,1,0-.513-.665,1.5,1.5,0,0,1-.923.314,1.511,1.511,0,1,1,0-3.023Z"
                transform="translate(-317.304 -317.305)" fill="#FBAF03" />
            <path id="Path_83"
                d="M152.579,150.021a2.558,2.558,0,1,0-2.558,2.558A2.561,2.561,0,0,0,152.579,150.021Zm-4.276,0a1.718,1.718,0,1,1,1.718,1.718A1.72,1.72,0,0,1,148.3,150.021Z"
                transform="translate(-139.805 -139.805)" fill="#FBAF03" />
        </g>
    </g>
</svg>
