<svg xmlns="http://www.w3.org/2000/svg" width="17.48" height="16.781" viewBox="0 0 17.48 16.781">
    <g id="Group_445" transform="translate(-46.047 -603.965)">
        <path id="Path_6"
            d="M17.186,20.131,9.344,12.913a.886.886,0,0,0-1.207,0L.293,20.131a.906.906,0,0,0-.232,1,.891.891,0,0,0,.836.578H2.15v7.232a.517.517,0,0,0,.514.519h4.3a.517.517,0,0,0,.514-.519V24.546H10v4.391a.517.517,0,0,0,.514.519h4.3a.517.517,0,0,0,.514-.519V21.705h1.253a.891.891,0,0,0,.836-.578A.906.906,0,0,0,17.186,20.131Z"
            transform="translate(46.047 591.289)" fill="#a7a7a7" />
        <path id="Path_7" d="M347.532,42.73h-3.559l4.088,3.718V43.26A.53.53,0,0,0,347.532,42.73Z"
            transform="translate(-286.36 562.293)" fill="#a7a7a7" />
    </g>
</svg>
