<svg xmlns="http://www.w3.org/2000/svg" width="19.164" height="16.781" viewBox="0 0 19.164 16.781">
  <g id="order_history_inactive" transform="translate(-4 -7)">
    <path id="Path_1326" d="M34.779,23.674h-.856a.342.342,0,0,1-.342-.342V21.943L29.721,24.7l3.86,2.757V26.069a.342.342,0,0,1,.342-.342h.171a4.618,4.618,0,0,1,3.268,7.883,5.3,5.3,0,0,0-2.583-9.936Z" transform="translate(-16.919 -9.829)" fill="#a7a7a7"/>
    <path id="Path_1327" d="M19.742,22.8a3.918,3.918,0,0,0-2.4-.951v1.707a.342.342,0,0,1-.541.279l-4.791-3.422a.342.342,0,0,1,0-.557l4.791-3.422a.342.342,0,0,1,.541.278v1.711h.513a5.95,5.95,0,0,1,1.882.308V15h-6.5v2.4a.342.342,0,0,1-.342.342H10.844A.342.342,0,0,1,10.5,17.4V15H4V27.32H19.742ZM8.791,26.635H4.684v-.684H8.791Zm0-1.369H4.684v-.684H8.791Z" transform="translate(0 -5.262)" fill="#a7a7a7"/>
    <path id="Path_1328" d="M25,9.537v2.254h1.369V9.537L28.623,7H27.537Z" transform="translate(-13.813)" fill="#a7a7a7"/>
    <path id="Path_1329" d="M7.467,7,5.414,9.053h6.219L13.686,7Z" transform="translate(-0.93 0)" fill="#a7a7a7"/>
    <path id="Path_1330" d="M32.414,9.053h6.219L40.686,7H34.467Z" transform="translate(-18.69 0)" fill="#a7a7a7"/>
    <path id="Path_1331" d="M54.053,15.288V8.414L52,10.467v3.794Z" transform="translate(-31.573 -0.93)" fill="#a7a7a7"/>
  </g>
</svg>
