<svg xmlns="http://www.w3.org/2000/svg" width="15.021" height="16.781" viewBox="0 0 15.021 16.781">
    <g id="profile_inactive" transform="translate(-296.156 -602.055)">
        <g id="user" transform="translate(296.156 602.055)">
            <g id="Group_201" transform="translate(3.155)">
                <g id="Group_200" transform="translate(0)">
                    <path id="Path_285"
                        d="M101.054,0a4.357,4.357,0,1,0,4.357,4.357A4.368,4.368,0,0,0,101.054,0Z"
                        transform="translate(-96.697)" fill="#a7a7a7" />
                </g>
            </g>
            <g id="Group_203" transform="translate(0 9.026)">
                <g id="Group_202">
                    <path id="Path_286"
                        d="M36.079,219.482a4.062,4.062,0,0,0-.438-.8,5.416,5.416,0,0,0-3.748-2.359.8.8,0,0,0-.552.133,4.644,4.644,0,0,1-5.479,0,.714.714,0,0,0-.552-.133,5.376,5.376,0,0,0-3.748,2.359,4.684,4.684,0,0,0-.438.8.4.4,0,0,0,.019.362,7.591,7.591,0,0,0,.514.761,7.233,7.233,0,0,0,.875.989,11.413,11.413,0,0,0,.875.761,8.676,8.676,0,0,0,10.35,0,8.366,8.366,0,0,0,.875-.761,8.789,8.789,0,0,0,.875-.989,6.67,6.67,0,0,0,.514-.761A.325.325,0,0,0,36.079,219.482Z"
                        transform="translate(-21.091 -216.312)" fill="#a7a7a7" />
                </g>
            </g>
        </g>
    </g>
</svg>
